<svg xmlns="http://www.w3.org/2000/svg" xml:space="preserve" x="0" y="0" version="1.1" viewBox="0 0 348.26 234.56"><path d="M262.25 71.93C255.69 31.15 220.32 0 177.69 0c-42.1 0-77.1 30.37-84.3 70.38l8.02-.33 56.63-48.09L199.01 47l18.78-.85 44.46 25.78" style="fill: #fff;" opacity=".5"/><path d="m101.2 209.65 7.58-11.94 3.14 1.99c.82.52 1.4 1.19 1.71 2.01.38.94.32 1.85-.16 2.75l-.16.3c-.45.86-.89 1.47-1.33 1.83-.77.63-1.74.82-2.91.57-.78-.17-1.77-.42-2.94-.76l-2.89 4.55-2.04-1.3zm6.34-5.45c.84.23 1.55.41 2.11.52.39.09.66.08.82-.03.16-.11.39-.47.68-1.05.08-.15.14-.25.18-.32.17-.31.09-.65-.22-1.03-.16-.19-.35-.35-.53-.47l-1.09-.69-1.95 3.07zM122.66 221.55l.3-.81c.38-1.01.47-2.76.26-5.26-.37-.05-.76-.11-1.17-.17l-2.28 4.89-2.21-1.02 5.98-12.82 3.37 1.57c.93.44 1.62 1.06 2.06 1.89.48.91.51 1.82.09 2.73-.05.1-.12.26-.2.47-.33.76-.65 1.31-.96 1.67-.57.63-1.3.96-2.21 1.01.19 2.67.03 4.66-.47 5.95l-.37.92-2.19-1.02zm.49-8.61c.87.13 1.59.21 2.16.25.39.03.65-.02.79-.15.12-.1.29-.43.51-.96.1-.24.19-.42.25-.56.1-.21.02-.46-.25-.74-.22-.25-.48-.43-.77-.57l-1.17-.55-1.52 3.28zM136.75 224.24c.02-.6.38-2.04 1.11-4.34.66-2.11 1.1-3.36 1.31-3.75.99-1.93 2.66-2.53 4.98-1.81 2.39.73 3.46 2.17 3.21 4.33-.05.43-.39 1.71-1.02 3.84-.69 2.31-1.2 3.72-1.52 4.22-.65 1.02-1.47 1.62-2.46 1.79-.68.12-1.49.04-2.41-.24-2.19-.68-3.25-2.02-3.2-4.04zm5.13-7.62c-.19.09-.38.31-.58.67-.18.35-.57 1.5-1.18 3.45-.61 1.99-.93 3.17-.94 3.52-.01.38.04.66.18.84.2.3.63.55 1.31.76.67.21 1.17.25 1.49.13.2-.07.4-.28.62-.62.19-.31.58-1.46 1.19-3.45.6-1.95.91-3.12.96-3.51.04-.4 0-.71-.16-.92-.21-.3-.66-.55-1.37-.76-.69-.22-1.2-.25-1.52-.11zM166.04 222.57c0 .46-.14 1.71-.43 3.75-.33 2.23-.62 3.61-.86 4.16-.83 1.83-2.37 2.58-4.61 2.24l-3.81-.59 2.1-13.98 3.8.59c2.47.38 3.74 1.65 3.81 3.83zm-3.5 6.87c.15-.33.37-1.46.65-3.4.28-1.86.42-2.98.42-3.37-.02-.4-.11-.7-.29-.88-.25-.26-.74-.45-1.48-.56l-1.38-.21-1.36 9.01 1.42.22c.7.11 1.2.08 1.5-.08.18-.13.35-.36.52-.73zM178.21 233.74a3.89 3.89 0 0 1-1.41-2.12c-.21-.76-.25-4.26-.13-10.54l.02-.91 2.42.01-.02.93c-.11 5.87-.1 9.15.04 9.84.11.37.32.66.66.85.26.15.54.22.82.23.77 0 1.25-.36 1.46-1.09.14-.67.19-3.94.13-9.81l-.01-.93 2.43.01.01.91c.07 6.28-.01 9.78-.22 10.53-.25.88-.72 1.59-1.42 2.12-.69.53-1.48.79-2.39.78-.88 0-1.68-.27-2.39-.81zM203.06 228.5l2.41.33-.17.95c-.32 1.82-1.54 2.89-3.66 3.21-.97.15-1.77.12-2.44-.1-.97-.32-1.69-1.03-2.19-2.12-.25-.54-.55-2.01-.9-4.4-.32-2.19-.47-3.51-.46-3.95.05-2.16 1.29-3.43 3.7-3.8 2.33-.36 3.89.37 4.66 2.18l.37.91-2.27.83-.35-.77c-.12-.29-.27-.49-.46-.58-.33-.17-.84-.19-1.57-.08-.72.11-1.2.3-1.43.58-.13.16-.21.45-.22.86-.01.39.14 1.59.44 3.62.32 2.05.55 3.24.69 3.57.15.35.33.58.52.69.32.17.82.21 1.53.1.66-.1 1.11-.26 1.35-.48.14-.13.24-.36.3-.67l.15-.88zM220.42 213.54l.78 2.39-2.5.8 3.58 11.05-2.31.75-3.58-11.05-2.5.81-.77-2.38 7.3-2.37zM229.29 209.77l2.18-1.06 6.18 12.72-2.19 1.06-6.17-12.72zM247.26 212.95c-.46-.38-1.37-1.57-2.72-3.56-1.24-1.84-1.95-2.95-2.13-3.35-.89-1.97-.34-3.65 1.67-5.03 2.06-1.42 3.85-1.36 5.38.17.32.31 1.11 1.37 2.38 3.18 1.39 1.97 2.17 3.25 2.37 3.81.39 1.15.35 2.16-.12 3.05-.33.61-.89 1.19-1.69 1.74-1.87 1.27-3.59 1.28-5.14-.01zm-2.79-8.75c-.06.21 0 .5.17.87.17.35.82 1.38 1.98 3.06 1.18 1.71 1.91 2.68 2.18 2.92.28.25.54.37.76.39.36.03.83-.17 1.42-.57.58-.4.92-.77 1.02-1.08.07-.2.03-.5-.11-.88-.13-.33-.78-1.36-1.96-3.07-1.17-1.67-1.88-2.66-2.16-2.93-.29-.29-.56-.43-.82-.44-.36-.02-.84.18-1.45.6-.6.4-.95.78-1.03 1.13zM269.9 197.97l-.65-.56c-.91-.81-3.23-1.64-6.97-2.5-.17-.04-.37-.09-.6-.14l5.66 5.73-1.73 1.71-9.93-10.05 1.66-1.64.63.48c.5.39 2.1.89 4.78 1.51.97.22 1.7.4 2.19.52l-5.01-5.07 1.72-1.71 9.94 10.06-1.69 1.66zM279.91 185.25c-.82.22-1.63.22-2.43-.02l-.96-.26.8-2.3.8.22c.88.23 1.6-.03 2.15-.79.14-.18.26-.41.36-.65.21-.54.15-1.06-.18-1.57-.24-.36-.53-.62-.86-.8-.73-.37-1.75-.16-3.04.64-.83.52-1.53.85-2.09 1-1.01.28-1.94.17-2.8-.32-.79-.45-1.33-1.13-1.62-2.02-.26-.82-.25-1.61.03-2.34.15-.4.34-.78.58-1.11.45-.62 1-1.06 1.66-1.31.67-.26 1.34-.32 2.03-.15l.99.24-.75 2.31-.77-.15c-.42-.08-.8.11-1.14.57-.12.15-.21.33-.29.53-.07.2-.07.44.01.71.08.29.23.5.46.63.25.14.58.15.95.03.32-.1.78-.33 1.36-.71 2.08-1.29 3.91-1.52 5.5-.71.96.5 1.69 1.24 2.15 2.22.52 1.08.56 2.18.12 3.28-.17.43-.38.82-.64 1.17-.6.84-1.4 1.4-2.38 1.66zM59.76 95.28c.39-.6.76-1.24 1.16-1.81l1.21-1.75 1.2-1.76 1.24-1.71c.42-.56.83-1.14 1.25-1.69l1.28-1.67c.84-1.12 1.71-2.2 2.58-3.28l1.31-1.62c.43-.55.88-1.06 1.32-1.59l2.67-3.17 2.73-3.09 1.36-1.55c.45-.51.93-1.01 1.39-1.51a5.853 5.853 0 0 1 4.86-1.89l2.36.22 8.9.87 8.88 1-8.81 2.11c1.11-1.05 2.2-2.14 3.32-3.17l3.36-3.12 3.36-3.13c1.12-1.04 2.23-2.09 3.37-3.1l6.81-6.13c1.14-1.01 2.26-2.05 3.42-3.05l3.45-3.01 6.9-6.01c1.14-1.01 2.33-1.97 3.49-2.96l3.49-2.95 7-5.88 7.1-5.77a13.767 13.767 0 0 1 15.85-1.09l.23.14 5.11 3.11c.85.52 1.71 1.03 2.55 1.57l2.53 1.6 10.12 6.4c1.69 1.06 3.35 2.17 5.02 3.26l5 3.29 5 3.28c.84.54 1.66 1.11 2.48 1.67l2.48 1.69-9.67-1.72 10.38-1.7 10.42-1.53 1.45-.21c2.23-.33 4.4.12 6.24 1.14 1.64.91 3.3 1.79 4.93 2.73l4.91 2.8 4.91 2.79c1.63.94 3.24 1.91 4.87 2.87l4.86 2.88c1.63.94 3.23 1.94 4.84 2.93l4.83 2.96c1.62.97 3.2 1.99 4.8 3.01l4.79 3.04c1.59 1.02 3.17 2.07 4.76 3.11 1.58 1.05 3.18 2.07 4.74 3.15l4.72 3.19 4.68 3.27c1.56 1.07 3.1 2.22 4.65 3.33 1.55 1.1 3.07 2.29 4.61 3.43l2.3 1.73c.76.58 1.5 1.19 2.26 1.79l.14.1c.34.26.39.75.13 1.09-.22.29-.62.37-.93.22l-20.43-9.44-10.22-4.72c-3.41-1.57-6.8-3.16-10.2-4.76l-40.73-19.15.85.1-20.58 4.33c-.37.07-.73 0-1.02-.18h-.01l-20.39-12.57-10.19-6.28c-3.41-2.08-6.77-4.22-10.16-6.33l1.76-.11-57.29 45.49c-.31.24-.7.32-1.05.25l-17.41-3.65.98-.22-6.44 4.89-6.49 4.81-12.98 9.64c-.34.25-.82.18-1.07-.16a.769.769 0 0 1-.02-.87l.14-.22zM39.63 214.45c-3.37.51-6.83.46-10.37-.17-3.54-.62-6.83-1.82-9.87-3.57a26.043 26.043 0 0 1-7.79-6.85c-2.16-2.81-3.53-6.14-4.12-9.99-.38-2.53-.31-5.28.22-8.25.53-2.98 1.49-5.74 2.89-8.3a22.55 22.55 0 0 1 5.54-6.67c2.29-1.89 5.01-3.08 8.14-3.56 2.17-.33 4.74-.02 7.72.94 2.98.96 5.28 2.3 6.9 4.02.16.22.24.37.25.42.01.06-.19.37-.6.92-.1.14-.7.88-1.78 2.21-1.09 1.34-2.27 2.94-3.52 4.79a43.91 43.91 0 0 0-3.35 5.87c-.98 2.06-1.36 3.81-1.13 5.26.09.6.01.86-.25.78-.43-.42-.71-1-.82-1.72-.11-.72-.04-1.69.21-2.9.24-1.2.63-2.5 1.16-3.87.53-1.37 1.12-2.76 1.76-4.15.65-1.39 1.31-2.7 1.99-3.9-2.94 2.54-5.05 5.83-6.34 9.83-1.3 4.03-1.63 8.07-1 12.17.19 1.2.56 2.47 1.14 3.8.57 1.33 1.36 2.5 2.38 3.51 1.02 1.02 2.3 1.77 3.86 2.27 1.55.5 3.48.58 5.76.23 3.25-.5 5.91-2.6 8-6.31 2.08-3.71 3.69-8.3 4.82-13.76 1.13-5.47 1.84-11.49 2.13-18.06.28-6.57.26-12.97-.08-19.21-.01-.85.3-1.46.93-1.8.62-.34 1.33-.58 2.11-.69.78-.12 1.61-.12 2.49-.01.88.11 1.63.19 2.25.21-1.76-.22-3.76-.41-6-.56-2.25-.15-4.51-.07-6.8.21-2.3.29-4.43.83-6.41 1.62-1.97.8-3.57 2.02-4.79 3.69-1.23-2.4-2.02-4.68-2.35-6.84-.4-2.65-.09-4.82.94-6.52 1.04-1.69 2.46-3.02 4.29-3.98 1.82-.95 3.92-1.59 6.27-1.88 2.35-.3 4.6-.3 6.74-.02.09-2.6.66-4.75 1.69-6.45 1.03-1.7 2.93-2.77 5.7-3.19-3.02-.4-6.49-1.16-10.42-2.28-3.94-1.12-7.9-2.27-11.9-3.44-3.99-1.17-7.86-2.12-11.61-2.84-3.74-.72-7-.86-9.77-.44-2.05.31-3.36.98-3.95 1.99-.58 1.02-.72 2.09-.43 3.21.29 1.13.87 2.27 1.73 3.43.85 1.16 1.7 2.05 2.53 2.66 3.3 2.2 6.32 3.68 9.09 4.43 2.77.75 5.17 1.14 7.21 1.2 2.04.05 3.66.02 4.88-.1 1.21-.13 1.98.03 2.29.47.35.69.09 1.22-.77 1.6-.87.38-2.15.64-3.86.78-1.7.14-3.67.13-5.91-.02s-4.56-.41-6.96-.78c-1.64-.24-3.55-.68-5.75-1.34-2.19-.65-4.38-1.64-6.55-2.96-2.17-1.33-4.15-3-5.94-5s-3.09-4.54-3.94-7.62c-.61-2.36-.65-4.64-.12-6.81s1.46-4.13 2.79-5.88c1.34-1.75 3.02-3.21 5.06-4.38 2.04-1.17 4.32-1.96 6.84-2.34 5.54-.85 11.26-.71 17.16.42s11.92 2.61 18.05 4.44c6.13 1.84 12.33 3.65 18.58 5.47 6.25 1.81 12.44 3.05 18.58 3.71 2.54.47 4.5.23 5.89-.72 1.4-.95 2.36-1.72 2.88-2.29.2-.28.44-.13.72.44.27.58.47 1.28.6 2.12.11.72.19 1.85.24 3.38.05 1.53-.17 3.1-.66 4.72-.49 1.62-1.35 3.07-2.56 4.36-1.22 1.3-3.03 2.13-5.44 2.5-2.29.35-4.73.45-7.35.3-2.61-.15-5.04-.37-7.3-.64 1.31.54 2.4 1.02 3.27 1.44.86.42 1.31.75 1.35.99.02.12-.15.21-.51.26-2.05.31-3.4 1.54-4.05 3.67-.66 2.13-1.36 4.8-2.1 7.99 1.07.58 2 .99 2.77 1.24.78.25 2.03.37 3.75.35-.44 1.17-1.02 2.19-1.75 3.04-.63.71-1.48 1.42-2.54 2.14-1.06.72-2.27 1.06-3.63 1.02a141.2 141.2 0 0 0-2.79 14.93c-.66 4.97-1.31 9.78-1.95 14.43-.64 4.66-1.41 9.06-2.32 13.2-.91 4.13-2.31 7.83-4.22 11.08-1.91 3.25-4.46 6.01-7.69 8.29-3.24 2.3-7.37 3.83-12.43 4.61z" style="fill: #fff;"/><path d="M101.23 178.77c-.27.66-.87 1.55-1.8 2.68-.94 1.13-2.09 2.26-3.46 3.39a26.027 26.027 0 0 1-4.53 3.01c-1.65.87-3.38 1.45-5.19 1.71-2.53.4-4.57.3-6.14-.26-1.56-.56-2.82-1.35-3.78-2.37s-1.64-2.27-2.05-3.75c-.41-1.48-.73-2.94-.95-4.38-.41-2.65-.49-5.59-.25-8.83s.54-6.52.89-9.83c.36-3.31.65-6.59.9-9.84.24-3.24.14-6.3-.3-9.2-.19-1.2-.53-2.04-1.03-2.52s-1.01-.77-1.52-.88c-.51-.11-.98-.13-1.4-.06-.42.06-.65-.02-.69-.26-.02-.11.5-.35 1.56-.7 1.05-.34 2.48-.66 4.29-.93 1.8-.28 3.55-.36 5.22-.25 1.68.12 3.24.46 4.69 1.04 1.44.58 2.66 1.5 3.66 2.77.99 1.26 1.64 2.86 1.93 4.79.3 1.92.27 4.2-.06 6.84-.33 2.64-.8 5.46-1.39 8.44-.59 2.98-1.17 6.03-1.74 9.13a76.21 76.21 0 0 0-1.12 8.95c-.1.14-.14.33-.09.57-.09.26-.08.75.04 1.47.11.72.43 1.38.95 1.98.52.6 1.45.79 2.77.59 1.56-.24 2.94-.88 4.13-1.93 1.2-1.05 2.18-2.28 2.95-3.69.77-1.41 1.38-2.86 1.83-4.35.45-1.48.78-2.79.97-3.93.44-7.58.9-13.59 1.39-18.04.49-4.45.57-7.69.26-9.74-.2-1.33-.56-2.22-1.06-2.71-.5-.47-1.01-.77-1.52-.87-.51-.11-.97-.1-1.38.03-.42.13-.64.07-.67-.18.34-.17.8-.37 1.39-.58 1.16-.42 2.59-.77 4.27-1.03 3.61-.55 6.98-.26 10.11.86 3.13 1.12 4.99 3.61 5.58 7.46.27 1.81.2 3.76-.21 5.85-.42 2.1-.91 4.33-1.47 6.69-.56 2.37-1.16 4.92-1.79 7.66-.62 2.74-.96 5.6-1 8.56.06.36.16.87.32 1.52.16.66.38 1.27.65 1.84.27.58.65 1.04 1.14 1.4.49.36 1.15.47 1.99.34 2.04-.31 3.52-1.34 4.42-3.08.9-1.74 1.57-3.62 1.99-5.66.43-2.03.76-3.87 1-5.51.24-1.64.78-2.53 1.63-2.65.48-.08.82.12 1.01.58.2.47.31.82.35 1.06.09.6.1 1.9.04 3.88-.07 1.98-.93 4.76-2.61 8.33-.26.66-.78 1.54-1.53 2.65-.75 1.1-1.69 2.2-2.82 3.3-1.12 1.1-2.43 2.06-3.89 2.9-1.47.84-3.11 1.4-4.92 1.68-3.73.57-6.46.22-8.2-1.05-1.74-1.27-2.95-2.97-3.64-5.08.05.1.01.17-.12.19z" style="fill: #fff;"/><path d="M139.41 163.86c-.08.26-.19.77-.32 1.53s-.24 1.63-.33 2.63c-.09 1-.15 2.03-.18 3.08-.02 1.05.03 2 .16 2.84.33 2.17 1.16 3.15 2.48 2.95 2.77-.43 4.78-1.57 6.04-3.43 1.25-1.85 2.16-3.77 2.72-5.77.55-1.99.95-3.84 1.18-5.54.23-1.7.77-2.61 1.62-2.74.6-.09 1 .13 1.21.65.2.53.32.9.36 1.15.09.6.11 1.9.04 3.88-.06 1.98-.94 4.7-2.62 8.16-.4.68-.96 1.57-1.72 2.67-.76 1.1-1.73 2.21-2.91 3.31-1.18 1.1-2.51 2.11-3.97 3.01-1.47.9-3.1 1.49-4.9 1.77-2.16.33-4 .27-5.48-.18-1.48-.45-2.7-1.13-3.64-2.03a9.025 9.025 0 0 1-2.16-3.28c-.5-1.27-.86-2.57-1.06-3.9-.33-2.17-.43-5.02-.3-8.54.14-3.53.39-7.33.75-11.39.36-4.06.77-8.25 1.22-12.57.45-4.31.86-8.38 1.27-12.2.4-3.82.72-7.16.96-10.03.23-2.87.26-4.97.05-6.29-.32-2.05-.83-3.78-1.54-5.21-.72-1.43-1.42-2.62-2.12-3.55-.7-.94-1.3-1.62-1.79-2.04-.49-.42-.75-.68-.77-.8-.06-.36.61-.8 2.02-1.33 1.4-.52 3.12-.93 5.16-1.25 1.68-.25 3.54-.38 5.58-.39 2.03 0 3.92.29 5.68.88 1.75.6 3.29 1.56 4.6 2.9 1.31 1.34 2.14 3.16 2.5 5.44.48 3.13.34 6.88-.41 11.24-.75 4.37-1.7 9.04-2.84 14.02s-2.36 10.09-3.65 15.34c-1.31 5.23-2.26 10.24-2.89 15.01z" style="fill: #fff;"/><path d="M164.33 160.04c-.09.26-.19.77-.32 1.53s-.24 1.64-.33 2.64c-.09 1-.15 2.03-.18 3.07-.02 1.06.03 2.01.16 2.84.33 2.17 1.16 3.15 2.49 2.95 2.77-.43 4.78-1.57 6.03-3.42 1.26-1.86 2.16-3.78 2.72-5.78.55-1.99.95-3.84 1.18-5.54.23-1.69.77-2.61 1.61-2.74.6-.09 1 .12 1.21.65.2.52.32.9.36 1.15.09.61.11 1.9.04 3.88s-.94 4.7-2.63 8.16c-.39.68-.96 1.57-1.72 2.67-.76 1.1-1.73 2.2-2.91 3.31a24.732 24.732 0 0 1-3.98 3.01c-1.46.9-3.09 1.49-4.9 1.76-2.16.33-3.99.27-5.48-.17-1.48-.46-2.7-1.13-3.64-2.03-.94-.9-1.66-1.99-2.16-3.27-.5-1.28-.86-2.58-1.06-3.9-.33-2.17-.43-5.02-.29-8.55.14-3.53.39-7.32.74-11.38.37-4.05.77-8.25 1.22-12.57.45-4.32.87-8.38 1.27-12.2.4-3.82.72-7.17.96-10.03.24-2.87.26-4.97.06-6.29-.31-2.04-.83-3.78-1.54-5.21-.71-1.43-1.42-2.61-2.12-3.56-.7-.94-1.29-1.62-1.78-2.04-.5-.42-.76-.68-.77-.81-.05-.36.61-.8 2.02-1.32 1.4-.52 3.12-.94 5.16-1.25 1.69-.26 3.55-.39 5.58-.4 2.04 0 3.93.3 5.68.89 1.75.59 3.29 1.56 4.6 2.9 1.31 1.34 2.15 3.15 2.5 5.44.48 3.13.34 6.88-.41 11.25-.75 4.36-1.69 9.03-2.84 14.01s-2.37 10.09-3.65 15.34c-1.31 5.22-2.26 10.23-2.88 15.01z" style="fill: #fff;"/><path d="M202.87 160.79c.65 4.22.79 8.41.45 12.59-.35 4.18-1.3 7.96-2.88 11.35a24.113 24.113 0 0 1-6.71 8.6c-2.91 2.36-6.64 3.88-11.21 4.58-3.86.6-6.58.05-8.2-1.61-1.61-1.66-2.61-3.76-3-6.29-.22-1.44-.2-3.94.05-7.49.26-3.55.64-7.71 1.14-12.46.51-4.75 1.1-9.9 1.8-15.42.7-5.53 1.36-10.99 2.02-16.38-.32-.44-.83-1.19-1.55-2.26-.72-1.06-1.22-2.55-1.52-4.48-.42-2.77-.15-5.03.81-6.78.96-1.75 2.27-2.87 3.92-3.37.76-1.47 1.28-3.28 1.57-5.41.29-2.14.39-4.28.31-6.42-.08-2.14-.2-4.12-.36-5.95-.16-1.82-.31-3.21-.46-4.18-.18-1.2-.64-2.33-1.35-3.39a15.73 15.73 0 0 0-2.36-2.78c-.87-.79-1.65-1.47-2.35-2.04-.7-.57-1.07-.97-1.11-1.22-.04-.24.56-.73 1.8-1.48s3.31-1.34 6.19-1.78c1.57-.24 3.19-.27 4.88-.1s3.26.58 4.71 1.21c1.46.64 2.71 1.55 3.75 2.75 1.05 1.2 1.72 2.75 2.02 4.68.77 5.06.8 10.66.08 16.8-.72 6.15-1.92 12.98-3.6 20.51.11-.02.19.04.21.15.02.12.09.17.21.15.36-.05 1.19-.43 2.51-1.12 1.31-.69 2.62-1.14 3.95-1.35 1.32-.2 2.25.03 2.79.69.53.66.82 1.17.88 1.53.08.48-.19 1.02-.77 1.6-.59.58-1.29 1.18-2.12 1.8-.83.62-1.61 1.14-2.35 1.56-.73.42-1.22.71-1.44.87.65 1.01 1.33 2.47 2.06 4.4.72 1.92 1.44 3.93 2.13 6.05.69 2.11 1.32 4.23 1.89 6.36.57 2.11.97 3.96 1.21 5.53zm-16.48 29.87c1.66-.38 3.1-1.25 4.31-2.61 1.21-1.35 2.18-3.04 2.92-5.06.73-2.03 1.19-4.28 1.37-6.77.17-2.49.04-5.12-.38-7.89-.41-2.65-1.01-5.73-1.79-9.25a46.4 46.4 0 0 0-3.6-10.26c-.82 4.32-1.6 8.65-2.34 13.02-.75 4.36-1.37 8.37-1.86 12.02-.49 3.64-.84 6.81-1.04 9.49-.2 2.68-.24 4.44-.11 5.28.23 1.58 1.07 2.25 2.52 2.03zM258.81 152.03c-1.04 2.86-2.79 5.53-5.24 8-2.45 2.47-5.3 3.96-8.55 4.45-2.17.33-3.92.14-5.26-.57-1.34-.72-2.4-1.6-3.17-2.65-.78-1.05-1.34-2.11-1.69-3.17-.35-1.05-.55-1.77-.6-2.12l-.25.78c-1.15 2.15-2.36 3.91-3.63 5.27-1.27 1.37-2.55 2.49-3.83 3.36-1.28.88-2.45 1.48-3.5 1.83-1.06.35-1.95.58-2.67.68-4.57.7-8.27-.49-11.08-3.57-2.81-3.08-4.57-6.9-5.27-11.48-.67-4.33-.44-8.74.65-13.22 1.1-4.48 2.92-8.64 5.48-12.48 2.55-3.84 5.65-7.11 9.31-9.84 3.65-2.71 7.75-4.42 12.33-5.12 4.21-.65 7.75-.11 10.59 1.61 2.85 1.72 4.52 4.14 5 7.27.26 1.69.14 3.37-.34 5.04-.04-.24-.97-.53-2.81-.87-1.84-.33-4.92-.17-9.25.5-1.18.31-3.01 1.05-5.48 2.22-2.47 1.18-4.86 2.87-7.17 5.07-2.31 2.2-4.23 4.93-5.77 8.18-1.53 3.26-1.97 7.05-1.3 11.38.53 3.49 1.48 5.66 2.84 6.49 1.36.84 2.64 1.17 3.84.98 3.25-.49 5.85-2 7.81-4.52 1.95-2.52 3.45-5.37 4.51-8.54 1.05-3.18 1.68-6.36 1.87-9.52.19-3.17.15-5.66-.13-7.46-.09-.6-.24-1.01-.46-1.22-.22-.21-.33-.38-.36-.5-.03-.24.31-.42 1.03-.53.96-.15 2.22-.13 3.8.07 1.57.2 3.1.57 4.61 1.14 1.5.57 2.85 1.32 4.04 2.25 1.18.93 1.87 1.99 2.06 3.2.07.48-.01 1.11-.26 1.89-.95 4.21-1.76 7.57-2.43 10.07-.67 2.5-1.26 4.84-1.79 7.02-.53 2.18-.77 3.44-.71 3.81.15.96.64 1.38 1.48 1.25 2.89-.44 5-1.57 6.31-3.37 1.33-1.8 2.27-3.7 2.83-5.7.55-1.99.93-3.81 1.11-5.44.18-1.62.62-2.55 1.33-2.79.96-.15 1.54.44 1.75 1.76.11.72.09 1.59-.07 2.59-.15 1.01-.35 1.97-.58 2.86-.23.9-.45 1.7-.65 2.41-.21.72-.31 1.13-.28 1.25z" style="fill: #fff;"/><path d="M277.29 105.04c1.53-.47 3.28-.72 5.25-.71 1.97.01 3.83.25 5.56.72 1.74.48 3.26 1.2 4.58 2.16 1.31.97 2.15 2.16 2.49 3.59.35 1.54.22 3.08-.41 4.58-.63 1.52-1.36 3.01-2.17 4.49a63.39 63.39 0 0 0-2.27 4.51c-.69 1.52-.91 3.07-.67 4.63.15.96.64 1.75 1.47 2.35-2.86-.18-5.25-1.07-7.16-2.68-1.91-1.62-2.96-3.46-3.15-5.53-.12-1.58.29-3.28 1.25-5.09.95-1.81 1.74-3.13 2.35-3.96l.18-.03c-.53.58-1.12 1.16-1.76 1.75-.65.6-1.23 1.24-1.74 1.94-2.48.63-4.65 1.76-6.49 3.4a19.039 19.039 0 0 0-4.46 5.85c-1.13 2.27-1.89 4.73-2.29 7.37-.39 2.65-.4 5.24-.01 7.76.22 1.44.59 2.83 1.1 4.17.51 1.34 1.22 2.56 2.13 3.65a8.315 8.315 0 0 0 3.33 2.44c1.31.54 2.88.67 4.68.39 3.25-.5 6.23-1.72 8.95-3.69 2.72-1.95 5.07-4.06 7.07-6.35 1.99-2.27 3.54-4.39 4.67-6.35 1.11-1.96 1.75-3.19 1.92-3.71.16-.51.55-.61 1.16-.27.6.34.96.86 1.07 1.59l.06.36c-.02-.12-.55 1.04-1.59 3.48s-2.68 5.19-4.92 8.24c-2.25 3.06-5.21 6.01-8.9 8.85-3.69 2.84-8.13 4.67-13.3 5.46-4.33.66-7.82.27-10.44-1.17-2.62-1.44-4.68-3.23-6.17-5.33-1.49-2.11-2.49-4.18-2.98-6.19-.5-2.02-.78-3.27-.86-3.75-.87-5.66-.67-10.8.59-15.43 1.26-4.63 3.08-8.61 5.47-11.92 2.38-3.32 5.05-5.98 8.02-7.98 2.94-1.99 5.73-3.19 8.39-3.59z" style="fill: #fff;"/><path d="M316.45 154.46c-3.15.36-5.75-.1-7.79-1.39-2.04-1.29-3.7-2.85-4.97-4.69-1.26-1.84-2.21-3.73-2.81-5.67-.61-1.94-1-3.51-1.19-4.71-.96-6.26-.73-11.81.69-16.64 1.41-4.84 3.43-8.96 6.05-12.38 2.61-3.42 5.5-6.08 8.66-7.99 3.15-1.89 5.94-3.03 8.35-3.4 3.61-.56 7.03.28 10.27 2.49 3.23 2.21 5.18 5.48 5.84 9.82.48 3.13.22 6.06-.77 8.8-1 2.74-2.48 5.16-4.43 7.24-1.96 2.09-4.26 3.79-6.88 5.12a27.655 27.655 0 0 1-8.28 2.66c-2.53.38-4.93.38-7.2 0-.22 1.02-.37 2.06-.45 3.12-.08 1.06-.05 2.07.1 3.03.37 2.41 1.33 4.45 2.88 6.12 1.55 1.68 3.83 2.28 6.84 1.82 3.61-.55 6.86-2.04 9.76-4.45 2.89-2.42 5.37-5.1 7.45-8.07 2.06-2.96 3.66-5.83 4.78-8.59 1.11-2.76 1.7-4.76 1.76-6l.15-.21c.2-.27.49-.44.85-.5.38.07.76.16 1.15.28.39.13.69.54.93 1.24l.08.55c-.73 4.05-2.02 7.91-3.86 11.58-1.84 3.67-4.14 6.95-6.9 9.83a37.183 37.183 0 0 1-9.52 7.19 35.95 35.95 0 0 1-11.54 3.8zm6.24-42.52c-1.07.29-2.2 1.17-3.38 2.64-1.2 1.48-2.28 3.15-3.29 5.03-1.01 1.88-1.8 3.72-2.39 5.54-.59 1.82-.8 3.21-.65 4.17.04.24.43.4 1.18.47.75.07 1.6.03 2.57-.12 1.21-.18 2.62-.59 4.25-1.2 1.63-.62 3.13-1.49 4.5-2.63 1.36-1.13 2.47-2.57 3.31-4.29.84-1.73 1.07-3.86.68-6.39-.3-1.92-1.11-3.16-2.41-3.69-1.33-.55-2.79-.39-4.37.47z" style="fill: #fff;"/></svg>
